<svg xmlns="http://www.w3.org/2000/svg" xmlns:xlink="http://www.w3.org/1999/xlink">
    <symbol viewBox="0 0 24 24" id="pixelarticons-sun"><path fill="currentColor" d="M13 3h-2v2h2V3zm4 2h2v2h-2V5zm-6 6h2v2h-2v-2zm-8 0h2v2H3v-2zm18 0h-2v2h2v-2zM5 5h2v2H5V5zm14 14h-2v-2h2v2zm-8 2h2v-2h-2v2zm-4-2H5v-2h2v2zM9 7h6v2H9V7zm0 8H7V9h2v6zm0 0v2h6v-2h2V9h-2v6H9z"></path></symbol>
    <symbol viewBox="0 0 24 24" id="pixelarticons-moon-star"><path fill="currentColor" d="M6 2h8v2h-2v2h-2V4H6V2ZM4 6V4h2v2H4Zm0 10H2V6h2v10Zm2 2H4v-2h2v2Zm2 2H6v-2h2v2Zm10 0v2H8v-2h10Zm2-2v2h-2v-2h2Zm-2-4v-2h2v-2h2v8h-2v-4h-2Zm-6 0h6v2h-6v-2Zm-2-2h2v2h-2v-2Zm0 0V6H8v6h2Zm8-10h2v2h2v2h-2v2h-2V6h-2V4h2V2Z"></path></symbol>
    <symbol viewBox="0 0 24 24" id="pixelarticons-check"><path fill="currentColor" d="M18 6h2v2h-2V6zm-2 4V8h2v2h-2zm-2 2v-2h2v2h-2zm-2 2h2v-2h-2v2zm-2 2h2v-2h-2v2zm-2 0v2h2v-2H8zm-2-2h2v2H6v-2zm0 0H4v-2h2v2z"></path></symbol>
    <symbol viewBox="0 0 24 24" id="pixelarticons-calendar-month"><path fill="currentColor" d="M15 2h2v2h4v18H3V4h4V2h2v2h6V2zM9 6H5v2h14V6H9zm-4 4v10h14V10H5zm2 2h2v2H7v-2zm6 0h-2v2h2v-2zm2 0h2v2h-2v-2zm-6 4H7v2h2v-2zm2 0h2v2h-2v-2zm6 0h-2v2h2v-2z"></path></symbol>
    <symbol viewBox="0 0 24 24" id="heroicons-cog-6-tooth-solid"><path fill="currentColor" fill-rule="evenodd" d="M11.078 2.25c-.917 0-1.699.663-1.85 1.567L9.05 4.889c-.02.12-.115.26-.297.348a7.493 7.493 0 0 0-.986.57c-.166.115-.334.126-.45.083L6.3 5.508a1.875 1.875 0 0 0-2.282.819l-.922 1.597a1.875 1.875 0 0 0 .432 2.385l.84.692c.095.078.17.229.154.43a7.598 7.598 0 0 0 0 1.139c.015.2-.059.352-.153.43l-.841.692a1.875 1.875 0 0 0-.432 2.385l.922 1.597a1.875 1.875 0 0 0 2.282.818l1.019-.382c.115-.043.283-.031.45.082c.312.214.641.405.985.57c.182.088.277.228.297.35l.178 1.071a1.876 1.876 0 0 0 1.85 1.567h1.844c.916 0 1.699-.663 1.85-1.567l.178-1.072c.02-.12.114-.26.297-.349c.344-.165.673-.356.985-.57c.167-.114.335-.125.45-.082l1.02.382a1.875 1.875 0 0 0 2.28-.819l.923-1.597a1.875 1.875 0 0 0-.432-2.385l-.84-.692c-.095-.078-.17-.229-.154-.43a7.614 7.614 0 0 0 0-1.139c-.016-.2.059-.352.153-.43l.84-.692c.708-.582.891-1.59.433-2.385l-.922-1.597a1.875 1.875 0 0 0-2.282-.818l-1.02.382c-.114.043-.282.031-.449-.083a7.49 7.49 0 0 0-.985-.57c-.183-.087-.277-.227-.297-.348l-.179-1.072a1.875 1.875 0 0 0-1.85-1.567zM12 15.75a3.75 3.75 0 1 0 0-7.5a3.75 3.75 0 0 0 0 7.5" clip-rule="evenodd"></path></symbol>
    <symbol viewBox="0 0 24 24" id="heroicons-question-mark-circle-solid"><path fill="currentColor" fill-rule="evenodd" d="M2.25 12c0-5.385 4.365-9.75 9.75-9.75s9.75 4.365 9.75 9.75s-4.365 9.75-9.75 9.75S2.25 17.385 2.25 12m11.378-3.917c-.89-.777-2.366-.777-3.255 0a.75.75 0 0 1-.988-1.129c1.454-1.272 3.776-1.272 5.23 0c1.513 1.324 1.513 3.518 0 4.842a3.75 3.75 0 0 1-.837.552c-.676.328-1.028.774-1.028 1.152v.75a.75.75 0 0 1-1.5 0v-.75c0-1.279 1.06-2.107 1.875-2.502a2.28 2.28 0 0 0 .503-.331c.83-.727.83-1.857 0-2.584M12 18a.75.75 0 1 0 0-1.5a.75.75 0 0 0 0 1.5" clip-rule="evenodd"></path></symbol>
    <symbol viewBox="0 0 24 24" id="heroicons-chart-bar-solid"><path fill="currentColor" d="M18.375 2.25c-1.035 0-1.875.84-1.875 1.875v15.75c0 1.035.84 1.875 1.875 1.875h.75c1.035 0 1.875-.84 1.875-1.875V4.125c0-1.036-.84-1.875-1.875-1.875zM9.75 8.625c0-1.036.84-1.875 1.875-1.875h.75c1.036 0 1.875.84 1.875 1.875v11.25c0 1.035-.84 1.875-1.875 1.875h-.75a1.875 1.875 0 0 1-1.875-1.875zM3 13.125c0-1.036.84-1.875 1.875-1.875h.75c1.036 0 1.875.84 1.875 1.875v6.75c0 1.035-.84 1.875-1.875 1.875h-.75A1.875 1.875 0 0 1 3 19.875z"></path></symbol>
    <symbol viewBox="0 0 24 24" id="heroicons-exclamation-circle-solid"><path fill="currentColor" fill-rule="evenodd" d="M2.25 12c0-5.385 4.365-9.75 9.75-9.75s9.75 4.365 9.75 9.75s-4.365 9.75-9.75 9.75S2.25 17.385 2.25 12M12 8.25a.75.75 0 0 1 .75.75v3.75a.75.75 0 0 1-1.5 0V9a.75.75 0 0 1 .75-.75m0 8.25a.75.75 0 1 0 0-1.5a.75.75 0 0 0 0 1.5" clip-rule="evenodd"></path></symbol>
    <symbol viewBox="0 0 24 24" id="mdi-pokeball"><path fill="currentColor" d="M12 2a10 10 0 0 1 10 10a10 10 0 0 1-10 10A10 10 0 0 1 2 12A10 10 0 0 1 12 2m0 2c-4.08 0-7.45 3.05-7.94 7h4.07c.44-1.73 2.01-3 3.87-3s3.43 1.27 3.87 3h4.07c-.49-3.95-3.86-7-7.94-7m0 16c4.08 0 7.45-3.05 7.94-7h-4.07c-.44 1.73-2.01 3-3.87 3s-3.43-1.27-3.87-3H4.06c.49 3.95 3.86 7 7.94 7m0-10a2 2 0 0 0-2 2a2 2 0 0 0 2 2a2 2 0 0 0 2-2a2 2 0 0 0-2-2"></path></symbol>
    <symbol viewBox="0 0 24 24" id="pixelarticons-chevron-right"><path fill="currentColor" d="M8 5v2h2V5H8zm4 4V7h-2v2h2zm2 2V9h-2v2h2zm0 2h2v-2h-2v2zm-2 2v-2h2v2h-2zm0 0h-2v2h2v-2zm-4 4v-2h2v2H8z"></path></symbol>
    <symbol viewBox="0 0 24 24" id="pixelarticons-chevron-right"><path fill="currentColor" d="M8 5v2h2V5H8zm4 4V7h-2v2h2zm2 2V9h-2v2h2zm0 2h2v-2h-2v2zm-2 2v-2h2v2h-2zm0 0h-2v2h2v-2zm-4 4v-2h2v2H8z"></path></symbol>
    <symbol viewBox="0 0 24 24" id="pixelarticons-chevron-up"><path fill="currentColor" d="M7 16H5v-2h2v-2h2v-2h2V8h2v2h2v2h2v2h2v2h-2v-2h-2v-2h-2v-2h-2v2H9v2H7v2z"></path></symbol>
    <symbol viewBox="0 0 24 24" id="heroicons-share-solid"><path fill="currentColor" fill-rule="evenodd" d="M15.75 4.5a3 3 0 1 1 .825 2.066l-8.421 4.679a3.002 3.002 0 0 1 0 1.51l8.421 4.679a3 3 0 1 1-.729 1.31l-8.421-4.678a3 3 0 1 1 0-4.132l8.421-4.679a3 3 0 0 1-.096-.755" clip-rule="evenodd"></path></symbol>
    <symbol viewBox="0 0 24 24" id="pixelarticons-close"><path fill="currentColor" d="M5 5h2v2H5V5zm4 4H7V7h2v2zm2 2H9V9h2v2zm2 0h-2v2H9v2H7v2H5v2h2v-2h2v-2h2v-2h2v2h2v2h2v2h2v-2h-2v-2h-2v-2h-2v-2zm2-2v2h-2V9h2zm2-2v2h-2V7h2zm0 0V5h2v2h-2z"></path></symbol>
</svg>