<svg xmlns="http://www.w3.org/2000/svg" xmlns:xlink="http://www.w3.org/1999/xlink">
    <symbol viewBox="0 0 24 24" id="pixelarticons-check"><path fill="currentColor" d="M18 6h2v2h-2V6zm-2 4V8h2v2h-2zm-2 2v-2h2v2h-2zm-2 2h2v-2h-2v2zm-2 2h2v-2h-2v2zm-2 0v2h2v-2H8zm-2-2h2v2H6v-2zm0 0H4v-2h2v2z"></path></symbol>
    <symbol viewBox="0 0 24 24" id="pixelarticons-calendar-month"><path fill="currentColor" d="M15 2h2v2h4v18H3V4h4V2h2v2h6V2zM9 6H5v2h14V6H9zm-4 4v10h14V10H5zm2 2h2v2H7v-2zm6 0h-2v2h2v-2zm2 0h2v2h-2v-2zm-6 4H7v2h2v-2zm2 0h2v2h-2v-2zm6 0h-2v2h2v-2z"></path></symbol>
    <symbol viewBox="0 0 24 24" id="heroicons-cog-6-tooth-solid"><path fill="currentColor" fill-rule="evenodd" d="M11.078 2.25c-.917 0-1.699.663-1.85 1.567L9.05 4.889c-.02.12-.115.26-.297.348a7.493 7.493 0 0 0-.986.57c-.166.115-.334.126-.45.083L6.3 5.508a1.875 1.875 0 0 0-2.282.819l-.922 1.597a1.875 1.875 0 0 0 .432 2.385l.84.692c.095.078.17.229.154.43a7.598 7.598 0 0 0 0 1.139c.015.2-.059.352-.153.43l-.841.692a1.875 1.875 0 0 0-.432 2.385l.922 1.597a1.875 1.875 0 0 0 2.282.818l1.019-.382c.115-.043.283-.031.45.082c.312.214.641.405.985.57c.182.088.277.228.297.35l.178 1.071a1.876 1.876 0 0 0 1.85 1.567h1.844c.916 0 1.699-.663 1.85-1.567l.178-1.072c.02-.12.114-.26.297-.349c.344-.165.673-.356.985-.57c.167-.114.335-.125.45-.082l1.02.382a1.875 1.875 0 0 0 2.28-.819l.923-1.597a1.875 1.875 0 0 0-.432-2.385l-.84-.692c-.095-.078-.17-.229-.154-.43a7.614 7.614 0 0 0 0-1.139c-.016-.2.059-.352.153-.43l.84-.692c.708-.582.891-1.59.433-2.385l-.922-1.597a1.875 1.875 0 0 0-2.282-.818l-1.02.382c-.114.043-.282.031-.449-.083a7.49 7.49 0 0 0-.985-.57c-.183-.087-.277-.227-.297-.348l-.179-1.072a1.875 1.875 0 0 0-1.85-1.567zM12 15.75a3.75 3.75 0 1 0 0-7.5a3.75 3.75 0 0 0 0 7.5" clip-rule="evenodd"></path></symbol>
    <symbol viewBox="0 0 24 24" id="heroicons-question-mark-circle-solid"><path fill="currentColor" fill-rule="evenodd" d="M2.25 12c0-5.385 4.365-9.75 9.75-9.75s9.75 4.365 9.75 9.75s-4.365 9.75-9.75 9.75S2.25 17.385 2.25 12m11.378-3.917c-.89-.777-2.366-.777-3.255 0a.75.75 0 0 1-.988-1.129c1.454-1.272 3.776-1.272 5.23 0c1.513 1.324 1.513 3.518 0 4.842a3.75 3.75 0 0 1-.837.552c-.676.328-1.028.774-1.028 1.152v.75a.75.75 0 0 1-1.5 0v-.75c0-1.279 1.06-2.107 1.875-2.502a2.28 2.28 0 0 0 .503-.331c.83-.727.83-1.857 0-2.584M12 18a.75.75 0 1 0 0-1.5a.75.75 0 0 0 0 1.5" clip-rule="evenodd"></path></symbol>
    <symbol viewBox="0 0 24 24" id="heroicons-chart-bar-solid"><path fill="currentColor" d="M18.375 2.25c-1.035 0-1.875.84-1.875 1.875v15.75c0 1.035.84 1.875 1.875 1.875h.75c1.035 0 1.875-.84 1.875-1.875V4.125c0-1.036-.84-1.875-1.875-1.875zM9.75 8.625c0-1.036.84-1.875 1.875-1.875h.75c1.036 0 1.875.84 1.875 1.875v11.25c0 1.035-.84 1.875-1.875 1.875h-.75a1.875 1.875 0 0 1-1.875-1.875zM3 13.125c0-1.036.84-1.875 1.875-1.875h.75c1.036 0 1.875.84 1.875 1.875v6.75c0 1.035-.84 1.875-1.875 1.875h-.75A1.875 1.875 0 0 1 3 19.875z"></path></symbol>
    <symbol viewBox="0 0 24 24" id="heroicons-exclamation-circle-solid"><path fill="currentColor" fill-rule="evenodd" d="M2.25 12c0-5.385 4.365-9.75 9.75-9.75s9.75 4.365 9.75 9.75s-4.365 9.75-9.75 9.75S2.25 17.385 2.25 12M12 8.25a.75.75 0 0 1 .75.75v3.75a.75.75 0 0 1-1.5 0V9a.75.75 0 0 1 .75-.75m0 8.25a.75.75 0 1 0 0-1.5a.75.75 0 0 0 0 1.5" clip-rule="evenodd"></path></symbol>
    <symbol viewBox="0 0 24 24" id="mdi-pokeball"><path fill="currentColor" d="M12 2a10 10 0 0 1 10 10a10 10 0 0 1-10 10A10 10 0 0 1 2 12A10 10 0 0 1 12 2m0 2c-4.08 0-7.45 3.05-7.94 7h4.07c.44-1.73 2.01-3 3.87-3s3.43 1.27 3.87 3h4.07c-.49-3.95-3.86-7-7.94-7m0 16c4.08 0 7.45-3.05 7.94-7h-4.07c-.44 1.73-2.01 3-3.87 3s-3.43-1.27-3.87-3H4.06c.49 3.95 3.86 7 7.94 7m0-10a2 2 0 0 0-2 2a2 2 0 0 0 2 2a2 2 0 0 0 2-2a2 2 0 0 0-2-2"></path></symbol>
    <symbol viewBox="0 0 24 24" id="pixelarticons-chevron-right"><path fill="currentColor" d="M8 5v2h2V5H8zm4 4V7h-2v2h2zm2 2V9h-2v2h2zm0 2h2v-2h-2v2zm-2 2v-2h2v2h-2zm0 0h-2v2h2v-2zm-4 4v-2h2v2H8z"></path></symbol>
    <symbol viewBox="0 0 24 24" id="pixelarticons-chevron-left"><path fill="currentColor" d="M16 5v2h-2V5h2zm-4 4V7h2v2h-2zm-2 2V9h2v2h-2zm0 2H8v-2h2v2zm2 2v-2h-2v2h2zm0 0h2v2h-2v-2zm4 4v-2h-2v2h2z"></path></symbol>
    <symbol viewBox="0 0 24 24" id="pixelarticons-chevron-up"><path fill="currentColor" d="M7 16H5v-2h2v-2h2v-2h2V8h2v2h2v2h2v2h2v2h-2v-2h-2v-2h-2v-2h-2v2H9v2H7v2z"></path></symbol>
    <symbol viewBox="0 0 24 24" id="heroicons-share-solid"><path fill="currentColor" fill-rule="evenodd" d="M15.75 4.5a3 3 0 1 1 .825 2.066l-8.421 4.679a3.002 3.002 0 0 1 0 1.51l8.421 4.679a3 3 0 1 1-.729 1.31l-8.421-4.678a3 3 0 1 1 0-4.132l8.421-4.679a3 3 0 0 1-.096-.755" clip-rule="evenodd"></path></symbol>
    <symbol viewBox="0 0 24 24" id="pixelarticons-close"><path fill="currentColor" d="M5 5h2v2H5V5zm4 4H7V7h2v2zm2 2H9V9h2v2zm2 0h-2v2H9v2H7v2H5v2h2v-2h2v-2h2v-2h2v2h2v2h2v2h2v-2h-2v-2h-2v-2h-2v-2zm2-2v2h-2V9h2zm2-2v2h-2V7h2zm0 0V5h2v2h-2z"></path></symbol>
    <symbol viewBox="0 0 24 24" id="pokemon-moon"><path fill="currentColor" d="M2.85,19.72C-.38,16.18-1.21,9.87,2.17,5.1,5.84-.12,12.32-1.06,16.86,1.04c-4.12-.51-7.17.92-8.74,4.82-.88,2.18-.6,4.36.68,6.39-.02-1.43.34-2.68,1.5-3.58.7-.55,1.51-.78,2.4-.75,1.81.07,3.23,1.38,3.47,3.25.14,1.09-.2,2.05-.92,2.87-.71.81-1.66,1.12-2.75,1.24.99.83,4.06.96,6.2-.22,1.61-.89,2.76-2.17,3.44-3.88.67-1.69.66-3.4.13-5.23,2.19,3.05,2.8,9.37-1.16,13.93-4.24,4.89-11.08,5.11-15.31,2.38,1.13-.02,2.08-.31,2.79-1.11.71-.8.98-1.73.81-2.78-.26-1.61-1.79-2.85-3.37-2.77-2.03.11-3.07,1.44-3.18,4.13Z"/></symbol>
    <symbol viewBox="0 0 24 24" id="pokemon-sun"><path fill="currentColor" d="M13.37 20.7c-.27-.49-.54-.98-.8-1.47-.11-.2-.24-.29-.48-.3-1.02-.05-2.01-.24-2.94-.69-.27-.13-.43-.09-.63.13-1.6 1.76-3.21 3.51-4.81 5.26-.1.11-.16.25-.25.38-.05-.04-.09-.08-.14-.12.04-.09.07-.17.11-.25 1.16-2.13 2.32-4.26 3.5-6.38.15-.26.14-.44-.07-.67-.57-.65-.98-1.4-1.28-2.21-.05-.14-.24-.29-.39-.33-.39-.1-.81-.15-1.21-.22l-.44-.09c0-.04-.02-.08-.03-.11.34-.19.66-.41 1.01-.56.54-.22.76-.55.73-1.16-.05-.94.21-1.85.61-2.7.12-.26.07-.41-.13-.59C3.91 6.94 2.06 5.26.22 3.59c-.06-.06-.14-.1-.22-.15a.6.6 0 0 1 .07-.09c.13.06.27.11.39.18C2.6 4.69 4.74 5.84 6.88 7.01c.28.15.46.15.7-.07.68-.63 1.49-1.08 2.38-1.36.31-.1.47-.24.51-.57.07-.48.18-.96.28-1.44.04 0 .07 0 .11-.01.24.43.48.85.7 1.29.13.26.29.37.59.37.92 0 1.81.18 2.66.55.27.12.44.07.63-.14 1.65-1.76 3.32-3.51 4.98-5.27.1-.11.19-.23.28-.35l.11.09c-.07.13-.13.26-.2.38-1.17 2.06-2.34 4.13-3.53 6.18-.17.3-.18.5.08.76.64.65 1.11 1.44 1.4 2.31.11.35.3.48.65.53.52.07 1.03.18 1.56.37-.45.25-.89.52-1.36.74-.34.16-.45.38-.44.74 0 .93-.18 1.83-.58 2.67-.14.29-.08.45.14.65 1.68 1.56 3.35 3.12 5.02 4.69.16.15.31.31.47.47-.02.03-.05.05-.07.08-.1-.05-.2-.09-.29-.14-2.09-1.17-4.18-2.34-6.26-3.53-.25-.14-.41-.14-.63.06-.75.7-1.62 1.21-2.59 1.54-.22.07-.33.19-.37.42-.1.56-.22 1.12-.33 1.68-.03 0-.06 0-.1.01Zm-4.43-4.58.09.06c.41-.32.84-.62 1.24-.95.18-.15.33-.17.56-.09 1.2.43 2.32.28 3.34-.5.21-.16.38-.19.62-.09.5.22 1.01.4 1.52.6.02-.03.04-.05.06-.08-.33-.44-.66-.9-1-1.33-.16-.2-.19-.37-.1-.62.35-1.02.3-2.04-.33-2.92-.36-.5-.39-.91-.17-1.42.12-.27.19-.55.27-.83.03-.09.02-.18.05-.35-.45.38-.84.68-1.2 1.03-.26.25-.5.32-.86.21-.9-.28-1.84-.27-2.58.29-.66.49-1.18.4-1.8.07-.19-.1-.4-.17-.6-.25-.07-.03-.15-.02-.31-.04.37.49.68.93 1.01 1.35.17.22.22.4.13.69-.37 1.18-.27 2.28.58 3.25.09.1.11.33.06.47-.16.49-.37.97-.55 1.45Z"/><path d="M8.94 16.12c.19-.48.39-.96.55-1.45.05-.14.03-.37-.06-.47-.85-.97-.96-2.08-.58-3.25.09-.29.04-.47-.13-.69-.33-.42-.64-.85-1.01-1.35.16.02.24.02.31.04.2.07.41.14.6.25.62.33 1.14.42 1.8-.07.74-.55 1.69-.57 2.58-.29.36.11.6.04.86-.21.36-.34.75-.65 1.2-1.03-.02.17-.02.26-.05.35-.08.28-.15.57-.27.83-.23.51-.19.92.17 1.42.64.88.68 1.9.33 2.92-.09.25-.06.42.1.62.35.43.67.89 1 1.33-.02.03-.04.05-.06.08-.51-.2-1.02-.38-1.52-.6-.24-.11-.41-.07-.62.09-1.01.77-2.14.93-3.34.5a.52.52 0 0 0-.56.09c-.4.33-.83.63-1.24.95l-.09-.06Zm3.09-1.62c1.36 0 2.53-1.14 2.54-2.5 0-1.35-1.15-2.52-2.52-2.52-1.36 0-2.53 1.14-2.54 2.5 0 1.35 1.15 2.52 2.52 2.52"/><path fill="currentColor" d="M12.03 14.5c-1.37 0-2.53-1.17-2.52-2.52 0-1.36 1.18-2.51 2.54-2.5 1.37 0 2.53 1.17 2.52 2.52 0 1.36-1.18 2.51-2.54 2.5"/></symbol>
    <symbol viewBox="0 0 24 24" id="pokeball-filled"><path fill="currentColor" d="M.01 11.44C.13 5.21 5.58.03 11.93 0 18.35-.03 23.8 5.08 24 11.4h-7.22c-.67-2.41-2.12-4.09-4.83-4.06-2.65.03-4.07 1.69-4.73 4.1zm7.21 1.18c1.02 2.76 2.49 4.03 4.67 4.07 2.29.05 3.77-1.19 4.92-4.11h7.15c.11 5.84-5.3 11.2-11.45 11.4C5.91 24.2.28 19.13 0 12.61h7.22Z"/><path fill="currentColor" d="M11.98 9.4c1.4-.01 2.59 1.13 2.63 2.52.05 1.44-1.15 2.67-2.6 2.68s-2.66-1.21-2.63-2.65c.03-1.39 1.2-2.54 2.59-2.55Z"/></symbol>
</svg>