<svg width="104pt" height="37pt" viewBox="-1 -1 106 39" xmlns="http://www.w3.org/2000/svg"><g id="fontsvg1680215856634" stroke-linecap="round" fill-rule="evenodd" stroke="#ffcb05" stroke-width="0.5mm" fill="#2a75bb"><path d="M 30.776 10.444 L 31.494 6.841 L 38.936 3.721 L 40.02 20.64 L 46.143 17.285 L 52.5 18.237 L 44.209 24.595 L 52.017 30.483 L 52.368 36.357 L 40.854 28.081 L 41.221 35.273 L 34.248 35.405 L 32.93 9.961 L 30.776 10.444 Z M 73.916 14.282 L 73.784 2.754 L 79.907 0 L 80.273 19.834 A 9.596 9.596 0 0 1 80.359 20.62 Q 80.387 21.008 80.39 21.439 A 15.628 15.628 0 0 1 80.391 21.563 Q 80.391 22.412 80.332 22.822 L 80.508 31.802 L 73.916 32.153 L 73.916 31.26 A 8.623 8.623 0 0 1 71.125 31.906 A 8.147 8.147 0 0 1 70.664 31.919 Q 69.404 31.919 68.298 31.538 Q 67.192 31.157 66.387 30.513 A 6.593 6.593 0 0 1 64.922 28.765 A 8.567 8.567 0 0 1 64.351 27.59 A 10.41 10.41 0 0 1 63.618 23.701 A 9.962 9.962 0 0 1 63.917 21.198 A 7.232 7.232 0 0 1 65.654 18.003 A 15.921 15.921 0 0 1 67.383 16.425 A 11.812 11.812 0 0 1 69.28 15.205 A 8.622 8.622 0 0 1 71.886 14.346 A 7.9 7.9 0 0 1 73.096 14.253 A 16.6 16.6 0 0 1 73.35 14.255 Q 73.707 14.26 73.916 14.282 Z M 11.88 20.273 L 14.517 29.517 L 10.679 32.285 L 3.955 13.081 A 0.039 0.039 0 0 0 3.937 13.09 Q 3.885 13.128 3.702 13.331 A 11.849 11.849 0 0 0 3.677 13.359 Q 3.428 13.638 3.025 14.084 A 77.337 77.337 0 0 1 2.884 14.24 Q 2.625 14.526 2.534 14.619 A 1.802 1.802 0 0 1 2.52 14.634 A 0.023 0.023 0 0 1 2.505 14.624 Q 2.454 14.565 2.292 14.154 A 18.275 18.275 0 0 1 2.234 14.004 A 47.105 47.105 0 0 1 2.103 13.658 Q 1.958 13.27 1.769 12.752 A 168.727 168.727 0 0 1 1.589 12.253 A 272.775 272.775 0 0 0 1.161 11.071 A 369.961 369.961 0 0 0 0.681 9.763 Q 0.176 8.394 0 8.042 Q 1.772 7.456 3.333 6.958 Q 4.893 6.46 6.621 6.013 A 40.638 40.638 0 0 1 8.929 5.485 A 34.583 34.583 0 0 1 9.932 5.303 A 14.947 14.947 0 0 1 12.422 5.098 A 60.757 60.757 0 0 1 13.281 5.103 Q 14.437 5.12 14.991 5.184 A 3.648 3.648 0 0 1 15.205 5.215 Q 16.201 5.405 17.087 5.83 A 5.568 5.568 0 0 1 18.669 6.965 A 5.754 5.754 0 0 1 19.734 8.493 A 6.554 6.554 0 0 1 19.805 8.643 A 2.033 2.033 0 0 1 19.98 9.478 Q 19.98 10.955 18.524 13.051 A 16.832 16.832 0 0 1 18.186 13.521 A 41.293 41.293 0 0 1 16.177 16.012 A 32.227 32.227 0 0 1 14.583 17.71 Q 12.841 19.43 11.948 20.214 A 18.351 18.351 0 0 1 11.88 20.273 Z M 85.43 3.721 L 87.349 35.039 L 80.742 35.405 L 79.424 9.961 L 77.271 10.444 L 77.988 6.841 L 85.43 3.721 Z M 62.695 23.218 L 66.226 27.48 A 3.4 3.4 0 0 1 65.609 28.545 Q 65.284 28.935 64.821 29.302 A 7.716 7.716 0 0 1 64.211 29.736 A 11.883 11.883 0 0 1 62.233 30.753 A 15.705 15.705 0 0 1 60.432 31.355 A 16.66 16.66 0 0 1 56.06 31.948 A 12.478 12.478 0 0 1 54.257 31.824 A 9.354 9.354 0 0 1 52.61 31.436 A 5.906 5.906 0 0 1 51.454 30.909 A 4.32 4.32 0 0 1 50.273 29.883 A 6.376 6.376 0 0 1 49.036 27.184 A 9.078 9.078 0 0 1 48.853 25.313 A 12.252 12.252 0 0 1 49.651 20.984 Q 50.35 19.116 51.123 18.233 A 3.46 3.46 0 0 1 51.343 18.003 A 10.867 10.867 0 0 1 53.665 16.318 Q 54.917 15.645 56.265 15.308 A 11.372 11.372 0 0 1 59.033 14.971 A 10.53 10.53 0 0 1 62.571 15.564 A 8.7 8.7 0 0 1 65.508 17.285 L 57.466 26.88 A 4.749 4.749 0 0 0 59.495 26.433 A 5.835 5.835 0 0 0 60.952 25.456 A 6.827 6.827 0 0 0 61.26 25.159 Q 62.065 24.331 62.695 23.218 Z M 100.195 23.218 L 103.726 27.48 A 3.4 3.4 0 0 1 103.109 28.545 Q 102.784 28.935 102.321 29.302 A 7.716 7.716 0 0 1 101.711 29.736 A 11.883 11.883 0 0 1 99.733 30.753 A 15.705 15.705 0 0 1 97.932 31.355 A 16.66 16.66 0 0 1 93.56 31.948 A 12.478 12.478 0 0 1 91.757 31.824 A 9.354 9.354 0 0 1 90.11 31.436 A 5.906 5.906 0 0 1 88.954 30.909 A 4.32 4.32 0 0 1 87.773 29.883 A 6.376 6.376 0 0 1 86.536 27.184 A 9.078 9.078 0 0 1 86.353 25.313 A 12.252 12.252 0 0 1 87.151 20.984 Q 87.85 19.116 88.623 18.233 A 3.46 3.46 0 0 1 88.843 18.003 A 10.867 10.867 0 0 1 91.165 16.318 Q 92.417 15.645 93.765 15.308 A 11.372 11.372 0 0 1 96.533 14.971 A 10.53 10.53 0 0 1 100.071 15.564 A 8.7 8.7 0 0 1 103.008 17.285 L 94.966 26.88 A 4.749 4.749 0 0 0 96.995 26.433 A 5.835 5.835 0 0 0 98.452 25.456 A 6.827 6.827 0 0 0 98.76 25.159 Q 99.565 24.331 100.195 23.218 Z M 32.673 16.956 A 4.737 4.737 0 0 0 30.981 15.454 A 12.021 12.021 0 0 0 29.954 14.954 A 9.057 9.057 0 0 0 28.77 14.539 A 8.369 8.369 0 0 0 26.572 14.253 A 7.948 7.948 0 0 0 25.483 14.328 A 8.573 8.573 0 0 0 22.764 15.198 A 11.464 11.464 0 0 0 20.82 16.46 A 15.586 15.586 0 0 0 19.16 18.003 A 7.232 7.232 0 0 0 17.422 21.198 A 9.962 9.962 0 0 0 17.124 23.701 A 10.41 10.41 0 0 0 17.856 27.59 A 8.567 8.567 0 0 0 18.427 28.765 A 6.593 6.593 0 0 0 19.893 30.513 Q 20.684 31.143 21.804 31.531 A 7.176 7.176 0 0 0 24.17 31.919 A 7.8 7.8 0 0 0 24.236 31.919 A 8.305 8.305 0 0 0 26.301 31.633 A 8.584 8.584 0 0 0 27.112 31.374 A 10.251 10.251 0 0 0 28.477 30.74 A 9.496 9.496 0 0 0 29.429 30.134 A 11.796 11.796 0 0 0 30.63 29.136 A 12.324 12.324 0 0 0 31.465 28.264 A 15.044 15.044 0 0 0 32.607 26.763 Q 32.83 26.441 33.02 26.041 A 7.234 7.234 0 0 0 33.296 25.371 A 9.528 9.528 0 0 0 33.502 24.719 A 11.645 11.645 0 0 0 33.757 23.569 A 11.162 11.162 0 0 0 33.778 23.446 A 12.083 12.083 0 0 0 33.926 21.533 Q 33.926 20.259 33.625 19.08 A 7.382 7.382 0 0 0 33.601 18.988 A 6.526 6.526 0 0 0 32.673 16.956 Z M 30.117 17.915 Q 29.868 19.028 29.041 19.878 A 3.935 3.935 0 0 1 28.565 20.298 Q 28.294 20.499 28.027 20.605 A 1.619 1.619 0 0 1 27.422 20.728 A 1.297 1.297 0 0 1 26.967 20.649 A 1.197 1.197 0 0 1 26.719 20.522 A 1.031 1.031 0 0 1 26.411 20.096 Q 26.339 19.919 26.306 19.695 A 2.807 2.807 0 0 1 26.279 19.292 A 2.164 2.164 0 0 1 26.481 18.393 A 2.917 2.917 0 0 1 26.726 17.959 Q 27.133 17.358 27.972 16.989 A 4.575 4.575 0 0 1 28.14 16.919 A 4.915 4.915 0 0 0 26.272 17.285 Q 25.371 17.651 24.727 18.23 A 4.774 4.774 0 0 0 23.694 19.534 A 3.349 3.349 0 0 0 23.385 20.329 A 2.815 2.815 0 0 0 23.306 20.991 A 2.371 2.371 0 0 0 24.153 22.852 A 3.416 3.416 0 0 0 24.565 23.159 Q 25.531 23.775 26.417 23.883 A 3.086 3.086 0 0 0 26.792 23.906 Q 27.832 23.906 28.638 23.21 A 4.31 4.31 0 0 0 29.695 21.819 A 5.219 5.219 0 0 0 29.868 21.423 A 6.199 6.199 0 0 0 30.249 19.95 A 5.475 5.475 0 0 0 30.293 19.263 A 5.327 5.327 0 0 0 30.231 18.437 A 4.355 4.355 0 0 0 30.117 17.915 Z M 73.916 23.848 L 73.916 20.728 A 1.297 1.297 0 0 1 73.461 20.649 A 1.197 1.197 0 0 1 73.213 20.522 A 0.97 0.97 0 0 1 72.937 20.15 Q 72.795 19.832 72.776 19.334 A 4.167 4.167 0 0 1 72.773 19.175 Q 72.773 17.739 73.916 16.978 A 4.582 4.582 0 0 0 72.597 17.358 A 5.345 5.345 0 0 0 72.327 17.49 A 5.836 5.836 0 0 0 71.436 18.06 A 4.918 4.918 0 0 0 70.986 18.457 A 4.431 4.431 0 0 0 70.23 19.454 A 4.107 4.107 0 0 0 70.115 19.68 Q 69.8 20.347 69.8 20.991 A 2.396 2.396 0 0 0 70.664 22.857 A 3.618 3.618 0 0 0 71.06 23.159 A 4.709 4.709 0 0 0 72.066 23.68 A 3.619 3.619 0 0 0 73.315 23.906 A 2.281 2.281 0 0 0 73.468 23.901 Q 73.628 23.89 73.844 23.858 A 8.328 8.328 0 0 0 73.916 23.848 Z M 54.141 25.371 L 58.638 19.805 A 3.316 3.316 0 0 0 57.648 19.476 A 3.024 3.024 0 0 0 57.173 19.438 Q 56.382 19.438 55.642 19.761 A 3.787 3.787 0 0 0 55.222 19.974 Q 55.014 20.097 54.857 20.234 A 1.619 1.619 0 0 0 54.595 20.522 Q 53.687 21.694 53.687 23.101 A 4.638 4.638 0 0 0 53.765 23.963 A 4.24 4.24 0 0 0 53.789 24.082 Q 53.868 24.441 54.032 25.006 A 32.911 32.911 0 0 0 54.141 25.371 Z M 91.641 25.371 L 96.138 19.805 A 3.316 3.316 0 0 0 95.148 19.476 A 3.024 3.024 0 0 0 94.673 19.438 Q 93.882 19.438 93.142 19.761 A 3.787 3.787 0 0 0 92.722 19.974 Q 92.514 20.097 92.357 20.234 A 1.619 1.619 0 0 0 92.095 20.522 Q 91.187 21.694 91.187 23.101 A 4.638 4.638 0 0 0 91.265 23.963 A 4.24 4.24 0 0 0 91.289 24.082 Q 91.368 24.441 91.532 25.006 A 32.911 32.911 0 0 0 91.641 25.371 Z M 9.478 12.114 L 10.679 16.436 A 27.587 27.587 0 0 0 11.289 15.793 Q 12.008 15.014 12.935 13.916 A 14.679 14.679 0 0 0 13.456 13.265 Q 14.176 12.305 14.269 11.755 A 0.926 0.926 0 0 0 14.282 11.602 Q 14.282 11.342 14.078 11.286 A 0.385 0.385 0 0 0 14.048 11.279 A 5.996 5.996 0 0 0 12.744 11.133 A 6.321 6.321 0 0 0 11.167 11.321 A 4.86 4.86 0 0 0 9.478 12.114 Z" vector-effect="non-scaling-stroke"/></g></svg>