<svg xmlns="http://www.w3.org/2000/svg" viewBox="0 0 910.13 908.95">
  <path fill="#010101" d="M0 454.06C.61 202.06 204.75-1.06 456.36-.03c251.82 1 454.28 204.19 453.77 455.38S705.43 909.77 454.5 908.91C202.59 908.06-.6 704.73 0 454.06"/>
  <path fill="#fff" d="M173 488.69c35.7 0 71.41.21 107.11-.17 7.31-.08 10.2 2 12 9.28 18.82 73.7 86 125.21 163 125.39a168.44 168.44 0 0 0 163.31-125.33c2-7.44 4.77-9.34 12-9.31q107.67.35 215.35 0c8 0 9.52 1.5 8.64 9.91-17.11 163.09-136.13 305.55-302.49 345.19-136.23 32.45-259 1.84-364.57-90.72-72-63.09-113.69-143.59-129.42-237.73-4.43-26.52-4.49-26.5 22.66-26.5Z"/>
  <path fill="#eb2127" d="M736.7 419.89c-34.94 0-69.89-.26-104.82.19-8.34.11-11.65-2.73-13.91-10.64-19.79-69.38-80.58-119.61-148.73-123.38-76.78-4.26-141.58 35.28-170.68 104.14-.87 2.07-1.66 4.19-2.38 6.31-8 23.38-8 23.38-33.4 23.38-64.63 0-129.25-.15-193.88.15-9.61 0-13.84-.92-12.11-12.72 22.8-155.69 106.22-266.09 251.65-325 156.73-63.54 330.1-21.39 443.93 103.13 57.07 62.43 90.45 136.3 101 220.32 1.76 14.11 1.64 14.15-12.93 14.16q-51.88-.03-103.74-.04"/>
  <path fill="#fff" d="M456.12 572.59c-64.13.57-118.48-51.88-119-114.84-.55-67.27 51.26-121 117.05-121.43 64.85-.41 118.47 52.27 119.29 117.21.84 64.53-52.35 118.53-117.34 119.06"/>
  <path fill="#010101" d="M456.1 396.58c32.69.37 57.55 26.21 57.15 59.39-.39 31.86-26.4 56.79-59 56.55a57.74 57.74 0 0 1-57.36-58.33c.42-32.78 26.31-57.98 59.21-57.61"/>
</svg>