<svg xmlns="http://www.w3.org/2000/svg" viewBox="0 0 51 51">
    <circle stroke="currentColor" fill="none" cx="25.5" cy="25.5" r="5.56"/>
    <circle stroke="currentColor" fill="none" cx="25.5" cy="25.5" r="5.56"/>
    <circle stroke="currentColor" fill="none" cx="25.5" cy="25.5" r="5.56"/>
    <path stroke="currentColor" fill="none" d="M8.07,43.41l4.32-3.06c3.5,3.09,8.09,4.96,13.11,4.96,10.94,0,19.81-8.87,19.81-19.81S36.44,5.69,25.5,5.69,5.69,14.56,5.69,25.5c0,1.36.13,2.68.39,3.96l8.5-6.02c.97-5.15,5.49-9.04,10.92-9.04,6.14,0,11.11,4.98,11.11,11.11s-4.97,11.11-11.11,11.11c-2.07,0-4-.56-5.65-1.55-2.23-1.31-3.96-3.39-4.82-5.86l-7.13,5.38-4.19,3.16"/>
    <circle stroke="currentColor" fill="none" cx="25.5" cy="25.5" r="5.56"/>
    <path stroke="currentColor" fill="none" d="M6.08,29.46c-.26-1.27-.39-2.6-.39-3.96C5.69,14.56,14.56,5.69,25.5,5.69s19.81,8.87,19.81,19.81-8.87,19.81-19.81,19.81c-5.02,0-9.61-1.87-13.11-4.96l-4.32,3.06c4.5,4.39,10.65,7.09,17.43,7.09,13.81,0,25-11.19,25-25S39.31.5,25.5.5.5,11.69.5,25.5c0,2.49.36,4.9,1.04,7.17.53,1.78,1.26,3.47,2.16,5.07l4.19-3.16"/>
    <line stroke="currentColor" fill="none" x1="8.07" y1="43.41" x2="8.06" y2="43.42"/>
</svg>